<svg version="1.1" id="Layer_1" xmlns="http://www.w3.org/2000/svg" xmlns:xlink="http://www.w3.org/1999/xlink" x="0px" y="0px" viewBox="0 0 800 840" style="enable-background:new 0 0 800 840;" xml:space="preserve">
                            <style type="text/css">
                                .st0{fill:#231F20;}
                                .st1{font-family:'MyriadPro-Regular';}
                                .st2{font-size:12px;}
                                .st3{fill:none;stroke:#231F20;stroke-miterlimit:10;}
                            </style>
                                                            <g id="XMLID_160_">
                                    <polyline id="Q1" class="st3" points="30,22.9 103.6,22.9 103.6,8.9 122.9,8.9 122.9,34.3 170.9,34.3 170.9,2.9 207.6,2.9
    		207.6,18.6 230.2,18.6 230.2,41.6 278.9,41.6 278.9,25.6 326.2,25.6 326.2,36.9 350.9,36.9 350.9,6.3 410.9,6.3 410.9,26.9
    		448.2,26.9 448.2,11.6 489.6,11.6 489.6,38.9 522.2,38.9 522.2,30.3 581.6,30.3 581.6,8.3 621.6,8.3 621.6,30.9 652.2,30.9
    		652.2,52.3 675.6,52.3 675.6,22.9 800,22.9 	"></polyline>
                                    <polyline id="Q2" class="st3" points="30,42.9 97.8,42.9 97.8,32 114.8,32 114.8,55.4 154.5,55.4 154.5,46.9 184.2,46.9
    		184.2,24.9 201.9,24.9 201.9,40.2 219,40.2 219,58.2 290.5,58.2 290.5,37.7 314.6,37.7 314.6,48.3 374.8,48.3 374.8,16.4
    		400.3,16.4 400.3,73.1 424.4,73.1 424.4,48.3 467.6,48.3 467.6,73.1 488.9,73.1 488.9,52.3 520.7,52.3 520.7,73.1 545.5,73.1
    		545.5,92.2 593,92.2 593,52.3 616.4,52.3 616.4,119.9 665.3,119.9 665.3,63.2 800,63.2 	"></polyline>
                                    <polyline id="Q3" class="st3" points="30,62.9 90.7,62.9 90.7,74.5 110.6,74.5 110.6,85.1 147.4,85.1 147.4,166.6
    		184.9,166.6 184.9,223.3 209,223.3 209,113.5 243.7,113.5 243.7,343.7 261.5,343.7 261.5,305.5 301.8,305.5 301.8,313.2
    		324.5,313.2 324.5,443.6 347.9,443.6 347.9,487.5 371.3,487.5 371.3,520.1 396.8,520.1 396.8,442.9 420.1,442.9 420.1,585.3
    		469.7,585.3 469.7,630.6 494.5,630.6 494.5,583.2 529.9,583.2 529.9,469.8 554,469.8 554,555.5 601.5,555.5 601.5,594.5
    		661.7,594.5 661.7,586 718.3,586 718.3,582.9 800,582.9 	"></polyline>
                                    <polyline id="Q4" class="st3" points="30,82.9 86.9,82.9 86.9,99.6 140.9,99.6 147.4,95.6 156.2,99.6 172.2,99.6
    		172.2,135.6 201.6,135.6 209,129.6 214.2,135.6 236.2,135.6 243.7,130.9 249.6,135.6 267.6,135.6 267.6,148.9 290.9,148.9
    		290.9,213.6 314.9,213.6 314.9,306.3 318.2,313.2 313.6,316.9 313.6,389.6 318.2,389.6 324.5,383.6 331.6,389.6 360.2,389.6
    		360.2,422.9 383.2,422.9 383.2,466.6 390.2,466.6 396.8,460.8 402.9,466.6 414.2,466.6 420.1,461.1 426.9,466.6 470.4,466.6
    		470.4,500.6 496.2,500.6 496.2,370.9 532.6,370.9 532.6,436.6 566.9,436.6 566.9,349.3 603.2,349.3 603.2,382.6 639.2,382.6
    		639.2,405.3 662.2,405.3 662.2,274.9 692.9,274.9 692.9,271.7 718.3,271.7 718.3,262.9 800,262.9 	"></polyline>
                                    <polyline id="Q5" class="st3" points="30,102.9 79.3,102.9 79.3,122.5 141.3,122.5 147.4,118.6 152.9,123.9 160.9,123.9
    		160.9,146.3 201.9,146.3 209,140.9 214.2,146.3 231.2,146.3 231.2,256.9 237.2,256.9 243.7,251.3 248.2,256.9 289.9,256.9
    		289.9,279.9 307.6,279.9 314.9,274.6 320.2,279.9 361.2,279.9 361.2,367.9 386.3,367.9 386.3,183.6 422.2,183.6 422.2,281.6
    		447.2,281.6 447.2,304.3 484.2,304.3 484.2,391.6 489.6,391.6 496.2,386.6 501.6,391.6 519.6,391.6 519.6,457.6 590.6,457.6
    		590.6,550.9 595.9,555.5 591.2,560.6 591.2,664.9 625.9,664.9 625.9,697.9 637.9,697.9 637.9,785.3 649.6,785.3 649.6,699.9
    		718.3,699.9 718.3,702.9 800,702.9 	"></polyline>
                                    <polyline id="Q6" class="st3" points="30,122.9 74.2,122.9 74.2,154.9 122.2,154.9 122.2,188.9 178.9,188.9 184.9,184.9
    		190.2,188.9 196.2,188.9 196.2,217.6 200.9,223.3 195.6,228.9 195.6,288.3 230.9,288.3 230.9,354.3 254.2,354.3 254.2,420.9
    		288.9,420.9 288.9,540.3 346.9,540.3 346.9,606.3 383.6,606.3 383.6,596.3 408.9,596.3 408.9,672.9 482.9,672.9 482.9,652.3
    		518.2,652.3 518.2,608.9 566.4,608.9 566.4,562.1 572.6,555.9 565.7,550.4 565.7,545.3 584.7,545.3 590.6,541.1 596.2,545.9
    		649.4,545.9 649.4,460.6 673.6,460.6 673.6,409.6 718.3,409.6 718.3,402.9 800,402.9 	"></polyline>
                                    <polyline id="Q7" class="st3" points="30,142.9 68.2,142.9 73.9,137.3 80.2,143.6 98.2,143.6 98.2,150.9 103.6,156.3
    		98.6,161.3 98.6,178.3 116.7,178.3 122.2,173.3 128.4,178.3 179.9,178.3 184.9,174.1 190.4,178.3 203.9,178.3 209,174.1
    		213.9,178.3 224.9,178.3 231.2,174.3 236.4,178.3 238.7,178.3 243.7,174.1 249.2,179.8 285.4,179.8 290.9,175.6 295.9,179.8
    		338.9,179.8 338.9,237.1 379.4,237.1 386.3,232.1 392.4,237.1 418.2,237.1 422.2,232.8 427.4,237.1 472.9,237.1 472.9,299.3
    		477.2,304.3 472.7,309.1 472.7,424.1 490.4,424.1 496.2,419.8 501.2,424.1 508.2,424.1 508.2,500.6 525.9,500.6 529.9,496.3
    		535.7,500.6 549.2,500.6 554,496.8 560.7,501.8 585.4,501.8 590.6,497.6 596.7,501.8 637.7,501.8 637.7,541.1 643.4,545.9
    		638.4,551.3 638.4,579.3 662.2,579.3 662.2,564.3 715.2,564.3 715.2,562.9 800,562.9 	"></polyline>
                                    <polyline id="Q8" class="st3" points="30,162.9 66.9,162.9 66.9,172.6 87.4,172.6 87.4,162.1 92.9,154.9 87.2,151.1
    		87.2,147.3 92.9,143.6 86.9,137.3 86.9,133.6 123.7,133.6 123.7,127.8 128.9,122.5 123.2,116.8 123.2,104.1 129.9,99.6 123.7,95.1
    		123.7,90.1 129.2,85.1 123.7,79.3 123.7,68.1 196.9,68.1 196.9,99.6 240.2,99.6 240.2,79.6 314.9,79.6 314.9,69.8 362.9,69.8
    		362.9,171.6 497.2,171.6 497.2,283.1 580.7,283.1 580.7,316.8 627.9,316.8 627.9,187.1 652.4,187.1 652.4,164.6 675.9,164.6
    		675.9,143.5 800,143.5 	"></polyline>
                                    <polyline id="Q9" class="st3" points="30,182.9 111.4,182.9 111.4,233.1 134.4,233.1 134.4,210.6 170.9,210.6 170.9,277.6
    		189.9,277.6 195.6,273.1 200.9,277.6 237.4,277.6 243.7,273.6 247.9,277.6 278.4,277.6 278.4,299.6 283.4,305.5 278.4,311.6
    		278.4,378.1 307.4,378.1 313.6,373.1 318.5,378.1 320.7,378.1 324.5,373.5 329.8,378.1 398.2,378.1 398.2,314.1 410.9,314.1
    		410.9,271.1 417.2,271.1 422.2,265.8 427.4,270.6 467.7,270.6 472.9,265.8 477.9,270.6 488.2,270.6 488.2,293.6 520.2,293.6
    		520.2,348.6 544.4,348.6 544.4,393.1 562.4,393.1 566.9,388.3 572.9,393.1 603.4,393.1 603.4,448.1 662.7,448.1 662.7,438.3
    		669.7,438.3 673.6,433.8 678.4,438.1 686.9,438.1 686.9,414.1 692.2,409.6 686.4,404.8 686.4,351.3 693.4,351.3 693.4,322.9
    		800,322.9 	"></polyline>
                                    <polyline id="Q10" class="st3" points="30,202.9 97.6,202.9 97.6,288.9 122.2,286.9 122.2,342.6 146.6,342.6 146.6,396.4
    		182.9,396.4 182.9,364.9 206.6,364.9 206.6,473.3 241.9,473.3 241.9,529.3 283.6,529.3 288.4,524.4 293.7,529.8 359.6,529.8
    		359.6,573.9 416.6,573.9 420.2,570.3 424.2,574.3 458.6,574.3 458.6,543.3 519.2,543.3 519.2,577.9 524.2,582.9 518.7,588.4
    		518.7,597.6 543.6,597.6 543.6,604.6 547.9,608.9 543.2,613.6 543.2,632.6 584.2,632.6 590.4,626.4 596.9,632.9 655.6,632.9
    		655.6,642.9 800,642.9 	"></polyline>
                                    <polyline id="Q11" class="st3" points="30,222.9 92.6,222.9 97.7,217.4 102.4,222.1 105.9,222.1 111,217 116.4,222.4
    		122.9,222.4 122.9,227.6 128.2,232.8 123,238 123,255.6 147.6,255.6 147.6,309.1 207.9,309.1 207.9,293 212.8,288.1 207.5,284.2
    		207.5,282.6 212.6,277.5 207.5,273.1 207.5,234.9 226.2,234.9 231.2,230 236.1,234.3 238.7,234.3 243.2,229.7 247.7,234.2
    		267.1,234.2 267.1,201.3 285.2,201.3 290.1,196.4 295.7,202.1 326.6,202.1 326.6,184.9 331.9,179.6 326.5,174.2 326.5,148.3
    		357.7,148.3 362.7,143.3 367.9,148.6 386.3,148.6 386.3,126.8 399.7,126.8 399.7,166.7 404.6,171.6 399.8,176.5 399.8,178
    		405.6,183.8 400.2,189.2 400.2,205.6 418.4,205.6 422.2,201.3 426.1,204.8 490.7,204.8 497.1,198.4 502.9,204.1 520.9,204.1
    		520.9,250.3 556.2,250.3 556.2,278.6 561,283.3 556.5,287.8 556.5,327.8 579.7,327.8 579.7,339.3 658.2,339.3 662.2,335.3
    		666.9,339.3 687.7,339.3 693.4,335.6 698.9,339.3 698.9,362.7 800,362.7 	"></polyline>
                                    <polyline id="Q12" class="st3" points="30,243.1 92.4,243.1 97.6,238.1 102.9,243.1 110.4,243.1 110.4,276.6 134.9,276.6
    		134.9,331.1 206.9,331.1 206.9,321.1 226.4,321.1 230.9,316.8 234.9,320.9 238.2,320.9 243.7,316.8 247.9,320.6 254.6,320.6
    		254.6,289.6 273.6,289.6 278.2,285 282.8,289.7 310.2,289.7 314.9,285.1 320.2,290 337.9,290 337.9,307.6 342.9,312.6 338.2,317.3
    		338.2,345.1 356.2,345.1 361.2,340.6 366.9,345.1 381.2,345.1 386.3,340.1 390.7,345.1 393.2,345.1 398.2,340.6 402.8,345.2
    		422.9,345.2 422.9,433.8 446.7,433.8 446.7,455.6 483.7,455.6 483.7,446.1 490.7,446.1 495.8,441 500.2,445.3 503.7,445.3
    		507.9,441.1 512,445.2 514.9,445.2 519.4,440.7 526.2,447.5 555.7,447.5 555.7,441.3 560.8,436.2 555.4,430.8 555.4,414.3
    		562.9,414.3 567.2,410.1 570.8,413.7 591.2,413.7 591.2,398.3 596.5,393 591.4,387.8 591.4,353.8 596.5,349.3 591.6,344.9
    		591.6,343.3 597.2,339.3 591.3,333.3 591.3,322.2 597.2,316.8 591.3,311.6 591.3,295.3 604.7,295.3 604.7,240.8 616.4,240.8
    		616.4,164.3 639.9,164.3 639.9,135.7 688.2,135.7 688.2,123.1 800,123.1 	"></polyline>
                                    <polyline id="Q13" class="st3" points="30,262.9 84.9,262.9 84.9,309.1 109.6,309.1 109.6,362.9 141.6,362.9 146.6,358.3
    		151.6,362.9 170.2,362.9 170.2,392.3 174.9,396.4 169.6,402.9 169.6,429.6 192.9,429.6 192.9,452.9 200.9,452.9 206.6,448.1
    		213.6,452.9 266.2,452.9 266.2,426.3 271.4,420.9 265.5,415 265.5,399.6 318.4,399.6 324.5,394.1 331.4,399.6 353.4,399.6
    		360.2,394.1 366.4,400.6 417.4,400.6 422.9,396.4 426.9,401.6 446.9,401.6 446.9,336.1 466.9,336.1 472.3,330.7 478,336.5
    		484.1,330.4 491.1,337.4 502.9,337.4 502.9,314.8 514.9,314.8 520.2,310.6 526.4,314.8 544.4,314.8 544.4,289.1 549.9,283.1
    		543.9,277.1 543.9,256.1 549.9,250.3 544.6,244.9 544.6,218.1 610.9,218.1 615.4,213.6 621.9,220.1 628.2,213.8 634.9,220.6
    		651.9,220.6 651.9,208.6 675.9,208.6 675.9,172.1 681.8,172 681.7,162.9 800,162.9 	"></polyline>
                                    <polyline id="Q14" class="st3" points="30,282.9 73.6,282.9 73.6,267.6 78.6,262.6 73.2,257.3 73.2,249.5 79.6,243.1
    		72.7,237.2 72.7,228.3 79,221.9 73.8,216.7 73.8,207.9 79.5,202.2 73.2,195.9 73.2,194.8 105.6,194.9 111.1,189.3 116.8,195
    		135.2,195 141,189.1 135.9,183.9 141.6,178.3 136.3,173 136.3,157.1 142.9,157.1 147.3,152.7 151.5,156.8 184.9,156.8 184.9,151.1
    		190.1,145.9 184.6,140.4 189.7,135.3 184.1,129.6 184.1,107.6 261.9,107.6 261.9,91.6 337.9,91.6 337.9,75.1 343.2,69.8
    		338.3,64.9 338.3,59.4 387.2,59.4 387.2,94.1 473.1,94.1 473.1,162.1 568.7,162.1 568.7,211.3 575.4,218.1 568.9,224.6
    		568.9,229.6 609.9,229.6 616.2,223.3 622.3,229.5 627.8,224 632.9,229.1 635,231.1 718.3,231.1 718.3,222.9 800,222.9 	"></polyline>
                                    <polyline id="Q15" class="st3" points="30,302.9 73.6,302.9 73.6,330.9 96.9,330.9 96.9,384.9 134.2,384.9 134.2,526.9
    		204.9,526.9 204.9,646.9 266.2,646.9 266.2,722.3 372.2,722.3 372.2,790.9 420.9,790.9 420.9,759.1 518.9,759.1 518.9,815.6
    		577.4,815.6 577.4,783.1 601.4,783.1 601.4,815.6 661.9,815.6 661.9,803.3 800,803.3 	"></polyline>
                                    <polyline id="Q16" class="st3" points="30,322.9 67.6,322.9 73.6,316 80.1,323 103.6,323 109.7,316.9 115.3,323.5
    		121.6,317.2 127.4,323 133.8,316.7 140.8,322.7 169.6,322.7 169.6,327.6 174.3,332.3 169.7,337 169.7,353.6 217.6,353.6
    		217.6,443.4 259.6,443.4 266.5,436.5 272.5,442.5 283.6,442.5 289,437 294.8,442.8 312.9,442.8 312.9,518.3 365.6,518.3
    		365.6,528.9 414.2,528.9 419.9,523.3 425.5,529 470.2,529 470.2,537.6 475.7,543.1 470.7,548.1 470.7,564.9 515.6,564.9
    		519.4,561.1 524.4,566.1 530.1,560.4 537,567.3 554.9,567.3 554.9,604.3 559.2,608.6 554.2,613.6 554.2,625.6 560.2,631.6
    		554.6,637.3 554.6,687.3 619.2,687.3 625.6,680.9 630.9,686.3 673.2,686.3 673.2,647.9 678.7,642.4 672.9,636.6 672.9,590.3
    		677.5,585.8 672.7,581 672.7,569.3 677.8,564.2 672.5,559 672.5,532.1 678.5,526.1 672.8,520.5 672.8,468.1 718.3,468.1
    		718.3,462.9 800,462.9 	"></polyline>
                                    <polyline id="Q17" class="st3" points="30,342.9 85.6,342.9 85.6,374.3 92.2,374.3 96.7,369.8 101.2,374.4 140.4,374.4
    		146.3,368.5 152.2,374.3 159.4,374.3 159.4,391.9 164,396.5 158.6,401.9 158.6,462.8 201.2,462.8 206.5,457.5 211.7,462.8
    		282.9,462.8 289,456.7 294.8,462.5 306.7,462.5 312.6,456.6 318.5,462.5 342.9,462.5 347.9,457.5 353.2,462.8 372.7,462.8
    		372.7,432.9 379.9,432.9 383.7,429.1 388.4,433.8 403.7,433.8 403.7,422.9 416.9,422.9 422.8,417 428.3,422.5 458.4,422.5
    		458.4,358.3 467.4,358.3 472.2,353.5 477.5,358.7 483.8,352.4 490.1,358.6 532.7,358.6 532.7,353.3 537.7,348.3 532.1,342.6
    		532.1,319.8 537,314.9 532.1,310 532.1,287.3 536.4,282.9 531.7,278.3 531.7,255.4 536.7,250.4 532.1,245.8 532.1,184.8
    		563.7,184.8 568.5,180 574.7,186.1 592.4,186.1 592.4,197.1 610.2,197.1 615.6,191.7 621.5,197.5 624.2,197.5 628.6,193.1
    		633.2,197.8 664.4,197.8 664.4,204.1 669.3,209 663.4,214.8 663.4,226.1 668.9,231.6 663.5,236.9 663.5,264.1 700.2,264.1
    		700.2,242.9 800,242.9 	"></polyline>
                                    <polyline id="Q18" class="st3" points="30,362.9 72.9,362.9 72.9,351.1 78.9,351.1 84.5,345.5 91.2,352.1 96.8,346.5
    		102.8,352.5 109.2,346.1 115.4,352.4 141.4,352.4 146.9,346.9 151.7,351.6 158.9,351.6 158.9,337.1 164.7,331.3 159.4,326.1
    		164.7,320.8 158.9,314.9 164.7,309 159.1,303.4 159.1,245.1 164.7,245.1 170.9,238.9 177.2,245.2 190.2,245.2 195.5,239.9
    		201.3,245.7 207.4,239.6 213.2,245.4 227.1,245.4 231.3,241.3 236.7,246.7 243.3,240 249.3,246 308.6,246 314.8,239.8 320.9,245.9
    		379.6,245.9 386.1,239.4 393.1,246.4 417.2,246.4 422.2,241.4 429.1,248.3 459.9,248.3 459.9,243.1 465.8,237.2 460.2,231.6
    		460.2,210.9 466.6,204.6 460.3,198.3 460.3,177.1 465.9,171.5 460,165.7 460,150.3 467.6,150.3 472.9,144.9 478.5,150.5
    		575.2,150.5 575.2,174.3 604.2,174.3 604.2,130.8 676.4,130.8 676.4,102.6 800,102.6 	"></polyline>
                                    <polyline id="Q19" class="st3" points="30,382.9 84.9,382.9 84.9,438.6 96.9,438.6 96.9,579.3 121.9,579.3 121.9,547.6
    		199.4,547.6 204.9,542.1 211.4,548.6 228.9,548.6 228.9,603.1 301.4,603.1 301.4,551.6 335.4,551.6 335.4,626.6 396.9,626.6
    		396.9,682.6 458.4,682.6 458.4,710.6 494.9,710.6 494.9,738.1 549.9,738.1 549.9,717.6 596.9,717.6 596.9,773.6 632.9,773.6
    		637.7,768.8 642.9,774.1 649,768 655.2,774.3 686.9,774.3 686.9,722.9 800,722.9 	"></polyline>
                                    <polyline id="Q20" class="st3" points="30,402.9 71.9,402.9 71.9,407.1 80.4,407.1 85.3,402.2 90.6,407.4 128.9,407.4
    		134.3,402 139.8,407.5 145.9,407.5 145.9,418.6 153.4,418.6 158.2,413.8 163.5,419 169.2,413.3 176,420 200.4,420 206.4,413.9
    		212.2,419.7 217.7,414.2 225,421.5 241.4,421.5 241.4,408.9 247.9,408.9 254,402.8 260,408.8 265.6,403.2 271.3,408.8 319.7,408.8
    		324.2,404.3 328.9,409 330.8,410.9 354.7,410.9 360.5,405.1 366.7,411.3 416.9,411.3 422.5,405.7 428.8,412 454.2,412 458.5,407.6
    		463.4,412.6 466.4,412.6 472.4,406.6 477.4,411.6 490.7,411.6 495.9,406.3 502.8,413.2 514.9,413.2 519.4,408.7 524.3,413.7
    		527.9,413.7 532.6,409 537.6,413.9 544.4,413.9 544.4,403.8 562.7,403.8 567.2,399.3 571.4,403.6 579.7,403.6 579.7,397.8
    		584.9,392.6 579.4,387.1 579.4,371.6 586.4,371.6 591.5,366.5 595.3,370.2 598.9,370.2 603,366.2 608.5,371.7 639.7,371.7
    		639.7,345.1 645.2,339.5 640,334.3 640,252.8 658.9,252.8 663.4,248.3 669.5,254.5 687.7,254.5 687.7,234.9 691.7,230.9 686.8,226
    		686.8,167.5 691.5,162.8 686.2,157.5 686.2,153.7 700.7,153.7 700.7,148.2 705.7,143.2 700,137.6 700,128.3 705.4,122.9
    		700.2,117.6 700.2,108.1 705.2,103.1 699.8,97.7 699.8,68.6 705.4,63 699.6,57.2 699.6,42.9 800,42.9 	"></polyline>
                                    <polyline id="Q21" class="st3" points="30,422.9 72.7,422.9 72.7,448.1 85.7,448.1 85.7,462.8 91.9,462.8 97.4,457.3
    		102.3,462.2 119.9,462.2 119.9,482.8 129.4,482.8 134.3,477.9 139.3,482.9 158.4,482.9 158.4,522.3 163.3,527.3 157.7,532.9
    		157.7,542.8 162.9,548 157.4,553.5 157.4,613.8 195.7,613.8 195.7,667.6 243.4,667.6 243.4,744.3 302.4,744.3 302.4,801.1
    		471.4,801.1 471.4,770.6 514.9,770.6 518.9,766.6 524.7,772.3 543.4,772.3 543.4,794.1 566.4,794.1 566.4,810.6 571.7,815.8
    		566.7,820.8 566.7,837.1 638.4,837.1 638.4,828.6 672.4,828.6 672.4,808.8 677.9,803.3 671.7,797 671.7,788.6 696.4,788.6
    		696.4,782.9 800,782.9 	"></polyline>
                                    <polyline id="Q22" class="st3" points="30,442.9 59.9,442.9 59.9,432.6 66.9,432.6 72.5,427 79.4,433.8 85.5,427.7
    		91.3,433.4 96.9,433.4 96.9,417.3 108.9,417.3 108.9,438.6 129.4,438.6 134.6,433.4 140.1,438.9 146.4,438.9 146.4,472.1
    		169.4,472.1 169.4,516.1 217.4,516.1 217.4,544.6 221.7,548.8 217.5,553 217.5,614.1 289.2,614.1 289.2,637.3 348.6,637.3
    		348.6,649.3 392.2,649.3 396.6,644.9 401.6,649.9 404.9,649.9 409.1,645.8 414.6,651.3 432.9,651.3 432.9,667.3 438.1,672.4
    		432.9,677.6 438,682.7 432.7,687.9 432.7,726.3 483.7,726.3 483.7,750.1 591.4,750.1 596.3,745.2 602,751 631.9,751 637.5,745.4
    		643.7,751.6 649.4,745.9 656.4,752.9 680.2,752.9 686.6,746.6 692.5,752.5 698.2,752.5 698.2,727.4 702.8,722.9 697.9,717.9
    		697.9,704.6 702.7,699.8 697.7,694.8 697.7,647.1 702.3,642.4 696.8,636.9 696.8,622.9 800,622.9 	"></polyline>
                                    <polyline id="Q23" class="st3" points="30,462.9 72.9,462.9 72.9,483.1 91.4,483.1 96.9,477.6 102.4,483.1 113.9,483.1
    		113.9,505.1 129.9,505.1 134.5,500.4 139.8,505.7 151.9,505.7 157.9,499.7 163.7,505.4 169.2,499.9 176.4,507.2 229.9,507.2
    		229.9,539.1 241.9,539.1 241.9,581.6 296.9,581.6 301.9,576.6 308.6,583.4 330.9,583.4 336.8,577.5 342.5,583.3 347.4,578.4
    		353.4,584.4 415.7,584.4 415.7,596.8 458.7,596.8 458.7,662.6 477.9,662.6 483,657.5 488,662.5 542.9,662.5 542.9,675.6
    		548.7,675.6 554.2,670 560.1,675.9 566.7,675.9 566.7,642.9 584.9,642.9 591.1,636.7 598.1,643.7 649.7,643.7 649.7,660.3
    		668.2,660.3 673.1,655.4 678.5,660.8 686.7,660.8 686.7,646.3 690.4,642.6 684.5,636.8 684.5,611.3 697.9,611.3 697.9,590.8
    		703.2,585.5 697.2,579.5 697.2,569.6 702.1,564.7 697.4,559.9 697.4,482.9 800,482.9 	"></polyline>
                                    <polyline id="Q24" class="st3" points="30,482.9 66.2,482.9 66.2,492.9 90.2,492.9 96.2,486.9 101.9,492.6 109.6,492.6
    		109.6,536.3 133.2,536.3 133.2,542.9 138.6,548.3 134.1,552.8 134.1,569.6 152.6,569.6 156.9,565.3 162.2,570.6 170.6,570.6
    		170.6,552.9 175.7,547.8 169.9,541.9 169.9,537.3 182.2,537.3 182.2,532.3 188.4,526.9 182.6,521.9 189.1,516.1 183.2,511.3
    		189.1,507.2 182.2,500.1 182.2,484.3 230.2,484.3 230.2,478.1 235.6,472.7 230.8,467.9 235.8,463 230.3,457.5 235.3,452.4
    		230.4,447.6 235.2,442.8 229.9,437.1 229.9,424.6 233.5,421 229.2,416.6 229.2,387.3 248.4,387.3 253.7,382 259.1,387.4
    		289.7,387.4 289.7,382 293.6,378.1 289,373.5 289,332.8 309.4,332.8 313.9,328.4 319.4,333.9 324.7,328.6 330.7,334.6 337.5,327.7
    		343.9,334.1 350.2,334.1 350.2,285.9 355.9,280.2 349.7,274.1 349.7,252.6 356.1,246.2 351.9,241.9 356.4,237.4 350.1,231.1
    		350.1,224.9 380.9,224.9 386.4,219.5 392,225 417.2,225 422.5,219.7 429.3,226.5 454.7,226.5 459.9,221.2 466.5,227.8 484.2,227.8
    		484.2,240.3 491.9,240.3 497.2,235 502.6,240.4 515.7,240.4 521,235 526.5,240.5 532.1,234.9 538.3,241.2 544.6,234.9 550.6,240.9
    		567.9,240.9 567.9,273.3 599.7,273.3 604.8,268.2 609.5,273 615.9,273 615.9,313 620.2,317.3 615.2,322.3 615.2,328.6 628.4,328.6
    		628.4,334.6 633,339.2 627.1,345 627.1,365.8 633.6,372.3 627.7,378.2 632.9,383.3 627.8,388.4 627.8,427.3 668.2,427.3 673.5,422
    		679.1,427.6 681.9,427.6 687.2,422.4 693,428.2 718.3,428.2 718.3,422.9 800,422.9 	"></polyline>
                                    <polyline id="Q25" class="st3" points="30,502.9 59.9,502.9 59.9,512.1 77.9,512.1 77.9,499.6 84,493.5 78,487.5
    		83.2,482.3 77.7,476.8 77.7,468.6 91.4,468.6 95.9,464.1 101.4,469.6 109.4,469.6 109.4,466.2 113.6,462 108.2,456.6 108.2,450.6
    		128.2,450.6 133.9,444.9 138.7,449.7 141.7,449.7 146,445.4 150.7,450.1 154.4,450.1 158.7,445.8 163.6,450.8 182.4,450.8
    		182.4,434.9 188.1,429.3 183.2,424.4 187.9,419.8 182.3,414.2 182.3,408.1 194.9,408.1 194.9,368.8 199.2,364.5 194,359.2
    		200,353.2 195,348.2 195,336.1 200,331.1 194.8,325.9 194.8,314.8 200.3,309.4 196.2,306.8 196.2,305.3 202.7,305.3 207.8,300.2
    		212.5,304.8 218.8,304.8 218.8,294.5 225.2,288.1 220.4,283.3 226.1,277.6 219.1,272.8 219.1,266.8 238.3,266.8 243.5,261.6
    		248.7,266.8 284.4,266.8 290,261.2 295.8,267 309.6,267 314.7,261.9 320,267.2 344.1,267.2 349.9,261.3 355.7,267.1 361.9,267.1
    		361.9,250.8 366.7,246 362.4,241.8 367.2,236.9 361.8,231.5 368.6,224.8 362.3,218.4 362.3,203.3 375.6,203.3 375.6,176.3
    		380.2,171.6 374.4,165.8 374.4,153.3 378.9,148.8 373.8,143.7 373.8,115.4 435.9,115.4 435.9,128.4 467.9,128.4 473.3,123
    		479,128.8 485.7,128.8 485.7,140.1 592.9,140.1 592.9,152.3 598.4,152.3 603.9,146.8 609.2,152.1 634.7,152.1 639.8,147
    		645.7,152.8 663.9,152.8 663.9,159.8 669.3,165.2 663.8,170.7 663.8,182.9 671.2,182.9 675.7,178.4 680.1,182.8 683.2,182.8
    		686.8,178.8 691.8,182.9 800,182.9 	"></polyline>
                                    <polyline id="Q26" class="st3" points="30,522.9 72.9,522.9 72.9,547.1 91.4,547.1 96.7,541.8 101.4,546.6 108.9,546.6
    		108.9,573.6 114.6,579.3 108.7,585.2 108.7,591.1 152.7,591.1 157.1,586.7 161.8,591.4 200.6,591.4 205,587 210,592 213.7,592
    		218,587.7 222.6,592.3 225.6,592.3 229.2,588.7 233.5,593 254.1,593 254.1,586.3 258.7,581.6 253.6,576.4 253.6,533.3 257.7,529.2
    		252.7,524.3 252.7,506.6 284.4,506.6 288.7,502.3 293.3,506.8 307.1,506.8 312.7,501.2 318.4,506.9 336.4,506.9 336.4,476.1
    		343.2,476.1 348,471.2 352.5,475.7 391.7,475.7 396.5,470.9 402,476.5 414.7,476.5 420.2,471 426,476.8 464.9,476.8 470.6,471.1
    		476.2,476.8 490.2,476.8 496.1,470.8 502.5,477.3 508.5,471.2 515,477.7 525.4,477.7 529.9,473.3 534.7,478.1 549.7,478.1
    		553.8,473.9 559.3,479.4 567.7,479.4 567.7,462.8 572.1,458.3 566.5,452.6 566.5,448.1 590.7,448.1 590.7,426.3 597.9,426.3
    		603.7,420.6 609,426 615.2,426 615.2,387.8 620.7,382.3 615.9,377.6 621.2,372.3 615.3,366.4 615.3,360.6 623.2,360.6 627.4,356.3
    		632.3,361.2 634.9,361.2 639.7,356.4 645.2,361.8 657.4,361.8 662.6,356.7 667.9,362 675.9,362 675.9,344.6 681.5,339 675.8,333.4
    		675.8,280.9 681.6,275.1 675.5,269 680.6,263.8 675.6,258.8 680.8,253.7 675,247.8 675,236.9 681.2,230.7 675.6,225.1 675.6,219.5
    		681.6,219.5 686.8,214.3 691.8,219.3 694.1,221.7 700.2,221.7 700.2,202.9 800,202.9 	"></polyline>
                                    <polyline id="Q27" class="st3" points="30,542.9 60.9,542.9 60.9,556.1 66.4,561.6 61.1,568.1 61.1,573.7 85.9,573.7
    		85.9,602.1 153.4,602.1 157.5,598 161.6,602.1 182.9,602.1 182.9,608.6 188.3,614 182.9,619.4 182.9,624.1 189.7,624.1
    		195.5,618.3 200.5,623.3 205.2,618.7 211.2,624.7 265.9,624.7 265.9,618.6 270.7,613.8 265.7,608.8 271.7,602.8 266.2,597.2
    		266.2,586.1 270.6,581.6 264.9,575.9 264.9,534.6 270.6,528.9 265.1,523.4 265.1,512.6 270.8,506.8 265.2,501.3 265.2,474.6
    		284.2,474.6 289.4,469.3 294.7,474.6 307.2,474.6 312.7,469.1 318,474.5 324.7,474.5 324.7,468.1 330.3,462.4 326,458 326,452.9
    		336.9,452.9 336.9,448.1 341.4,443.6 335.8,438 335.8,417.3 341.8,411.3 336.7,406.2 342.5,400.3 336.7,394.5 342.1,389.2
    		336.5,383.6 341.7,378.4 335.9,372.6 335.9,355.9 356.9,355.9 361.7,351.1 368.1,357.4 379.6,357.4 386.1,350.9 391.8,356.7
    		397.9,350.6 404.4,357.2 418.9,357.2 423,353 428.4,358.4 433.9,358.4 433.9,287.6 440.6,280.9 435.6,275.9 440.7,270.8
    		434.7,264.8 434.7,253.6 440.3,248 434.7,242.4 440.4,236.8 434.9,231.3 440.2,225.9 435.2,220.9 435.2,209.6 440.4,204.4
    		436.1,200.1 436.1,192.5 455.2,192.5 459.7,188 465.6,193.9 491.9,193.9 497.5,188.3 504,194.8 509.2,194.8 509.2,167.3 514.5,162
    		509.3,156.8 515.1,151.1 509.4,145.4 514.9,139.9 509.1,134.1 509.1,128.6 545.9,128.6 545.9,135.3 551.2,140.5 544.8,146.8
    		549.8,151.8 545,156.7 550.8,162.5 544.8,168.4 544.8,180 550.4,185.6 544.7,191.3 544.7,206.9 563.2,206.9 568.8,201.4
    		574.3,206.9 591.9,206.9 591.9,213.8 598.2,218.1 592.6,223.8 598.7,229.8 592.3,236.1 592.3,262.3 598.7,262.3 604.8,256.2
    		611.5,263 622.2,263 628,257.1 633.2,262.3 635.7,262.3 639.9,258.1 645.1,263.2 651.7,263.2 651.7,309.8 657.2,309.8 663,303.9
    		668.1,308.9 670.7,308.9 675.8,303.8 681.3,309.3 694.7,309.3 699.3,304.7 704.9,310.3 718.3,310.3 718.3,302.9 800,302.9 	"></polyline>
                                    <polyline id="Q28" class="st3" points="30,562.9 72.9,562.9 72.9,558.9 91.9,558.9 96.9,553.1 102.9,558.3 108.5,552.7
    		115,559.2 121.7,552.5 128.5,559.3 128.5,579.3 152.9,579.3 158.2,574.1 163.7,579.6 195.6,579.6 195.6,570.6 201.6,570.6
    		205.7,566.5 211.3,572.2 217.7,565.8 223.5,571.7 229.2,566 235,571.8 241.4,565.5 247.2,571.3 253.2,565.3 259.7,571.8
    		265.2,566.3 270.8,571.9 282.9,571.9 282.9,577.4 287.5,582 282.1,587.4 282.1,593.9 296.1,593.9 301.7,588.3 307.4,594.1
    		324.9,594.1 324.9,616.6 330.6,616.6 336.2,610.9 341.4,616.1 403.7,616.1 408.9,610.8 416.8,618.7 453.7,618.7 458.7,613.6
    		464.3,619.3 469.9,613.7 475.7,619.5 483.2,619.5 483.2,624.7 489,630.5 483.4,636.1 483.4,641.1 495.4,641.1 495.4,647.6
    		500.1,652.3 495,657.4 500.1,662.5 495.2,667.4 495.2,683.8 536.7,683.8 536.7,728.1 544.2,728.1 549.8,722.5 556.2,728.8
    		591.4,728.8 596.9,723.3 603.2,729.6 632.2,729.6 637.7,724.1 643.4,729.8 649.5,723.8 655.6,729.9 661.7,729.9 661.7,747.6
    		667.3,753.3 661.8,758.8 661.8,762.9 680.4,762.9 686.9,756.6 693.8,762.9 697.7,762.9 715.7,762.9 800,762.9 	"></polyline>
                                    <polyline id="Q29" class="st3" points="30,582.9 72.9,582.9 72.9,591.3 80.9,591.3 86.5,585.7 91.8,591 96.9,591
    		96.9,596.3 102.8,602.2 98,607 98,612.9 146.2,612.9 146.2,633.9 190.2,633.9 194.6,629.6 200.5,635.5 205.1,630.9 210.5,636.2
    		277.6,636.2 277.6,648.9 336.4,648.9 336.4,660.1 360.4,660.1 360.4,653.8 365.6,648.7 359.6,642.7 359.6,632.1 365,626.7
    		360.1,621.7 365.6,616.2 360.2,610.8 365.2,605.8 359.3,600 359.3,594.3 372.9,594.3 372.9,589.1 377.6,584.3 372.3,579
    		377.5,573.8 371.2,567.5 371.2,562.8 409.7,562.8 409.7,542.6 415.4,542.6 420.5,537.5 426.1,543.1 445.9,543.1 445.9,537.5
    		458.9,537.5 458.9,533.1 463,529 456.8,522.9 525.7,522.9 530.3,518.2 534.7,522.6 549.4,522.6 554.5,517.5 560.1,523.1
    		584.7,523.1 590.4,517.4 595.3,522.2 597.9,524.8 631.7,524.8 637.5,519 642.5,524 645.2,524 649.3,519.8 654.9,525.3 686.2,525.3
    		686.2,502.9 692.9,502.9 697.3,497.7 702.2,502.9 800,502.9 	"></polyline>
                                    <polyline id="Q30" class="st3" points="30,602.9 65.6,602.9 65.6,610.9 77.6,610.9 77.6,608.3 90.2,608.3 90.2,622.3
    		120.9,622.3 120.9,698.9 207.6,698.9 207.6,723.6 230.9,723.6 230.9,700.9 237.6,700.9 243.5,695 249.5,701 261.4,701 266.3,696.1
    		271.6,701.4 386.3,701.4 386.3,719.6 428.4,719.6 432.8,715.2 438.1,720.4 482.7,720.4 482.7,716.3 488.2,710.8 483.7,706.8
    		530.9,706.8 536.5,701.2 542.7,707.3 631.4,707.3 637.4,701.3 643.9,707.8 649.1,702.6 655,708.5 673.4,708.5 673.4,742.9
    		681.7,742.9 687.2,737.4 692.4,742.7 698.2,736.9 704.2,742.9 800,742.9 	"></polyline>
                                    <polyline id="Q31" class="st3" points="30,622.9 71.6,622.9 71.6,650.3 116.2,650.3 121.2,645.3 126.2,650.4 183.1,650.4
    		183.1,656.8 189.9,656.8 195.4,651.3 202.1,658 260.2,658 265.8,652.4 271.5,658.1 325.9,658.1 325.9,670.8 383.9,670.8
    		383.9,661.1 391.4,661.1 396.7,655.8 401.8,661 404.7,661 409,656.6 414.3,662 420.4,662 420.4,655.6 424.7,651.3 419.7,646.3
    		419.7,623.6 424.6,618.6 419.2,613.2 419.2,601.8 434.4,601.8 440,596.2 434.7,590.8 440.1,585.4 435,580.3 440.5,574.7
    		433.3,567.5 433.3,548.8 438.7,543.4 432.9,537.6 432.9,534.3 438.5,528.8 433.6,523.9 433.6,482.8 439.4,477 433.8,471.4
    		438.9,466.3 433.8,461.2 433.8,438.3 438.6,433.5 433.9,428.8 440.4,422.4 435.8,417.7 441,412.5 435.4,406.8 440.4,401.8
    		434.6,396 434.6,379.6 441,379.6 446.6,374 451.2,378.6 454.9,378.6 458.9,374.6 462.7,378.3 466.4,378.3 472.4,372.3 477.8,377.7
    		483.7,371.8 490.5,378.5 496,373 503.7,380.6 527.4,380.6 532.5,375.5 537.2,380.2 539.9,380.2 544.3,375.8 549.6,381 556.2,381
    		556.2,337.9 562.7,337.9 562.7,331.9 567.2,327.4 561.6,321.8 561.6,299.6 568.9,299.6 568.9,288.3 573.8,283.5 568.8,278.5
    		575.4,278.5 575.4,275.8 578.3,273 574.6,269.3 574.6,251.9 580.6,251.9 580.6,234.9 586.3,229.3 580.6,223.6 586.2,218
    		580.8,212.7 586.4,207.1 580.4,201.1 580.4,190.9 585.9,185.5 580.5,180.1 586.4,174.3 580.4,168.3 580.4,147.1 586.9,140.6
    		580.5,134.2 580.5,108.3 610.4,108.3 616.3,102.5 622.3,108.5 652.2,108.5 652.2,82.4 659.2,82.4 665,76.6 670.6,82.2 693.9,82.2
    		699.7,76.5 706.1,82.9 800,82.9 	"></polyline>
                                    <polyline id="Q32" class="st3" points="30,642.9 66.9,642.9 71.7,637.9 76.5,642.7 117.2,642.7 120.8,639.1 124.9,643.2
    		140.7,643.2 140.7,623.3 146.2,617.8 152.5,624 173.2,624 173.2,617.8 177.4,613.6 172.1,608.4 178.6,601.9 173.5,596.8
    		179.2,591.1 173.8,585.7 180,579.5 172.6,574.3 172.6,572.9 183.2,572.9 183.2,559.8 187.6,559.8 187.6,552.5 192.7,547.4
    		188.3,543 188.3,537.9 194.6,537.9 194.6,531.6 199.6,526.6 195.2,522.2 201,516.3 195.9,511.3 200.5,506.7 194.8,501 194.8,495.1
    		237.1,495.1 242,490.2 247.1,495.3 259.9,495.3 265.1,490 270.8,495.7 283.7,495.7 288.8,490.6 294.7,496.6 307.7,496.6 313,491.3
    		318.3,496.7 331.6,496.7 336.3,492 341.4,497.1 366.9,497.1 371.8,492.2 377.6,498.1 390.9,498.1 396.6,492.4 402,497.8
    		415.1,497.8 420.1,492.8 424.7,497.5 428.9,497.5 433.5,492.9 439.8,499.1 458.2,499.1 458.2,510.9 525.4,510.9 530,506.4
    		536.1,512.4 549.9,512.4 554.3,508.1 559.1,512.9 566.7,512.9 566.7,506.3 571.3,501.7 566.5,497 566.5,491.3 577.9,491.3
    		579.2,490.1 579.2,464.5 585.9,457.8 581.3,453.2 586.1,448.4 579.7,441.9 579.7,436.8 586.1,436.8 591,432 595.5,436.5
    		599.2,436.5 603.5,432.1 607.5,436.1 609.7,438.3 639,438.3 639,432 643.9,427.2 638.7,422 638.7,416.2 648.7,416.2 648.7,409.6
    		653.3,404.9 648.5,400.1 648.5,365.8 652.4,361.8 648.3,357.7 648.3,343.8 652.7,339.4 648.1,334.8 648.1,317.9 657.4,317.9
    		662.3,313.1 667.5,318.3 671.4,318.3 675.4,314.4 679.7,318.8 699.6,318.8 699.6,282.9 800,282.9 	"></polyline>
                                    <polyline id="Q33" class="st3" points="30,662.9 61.9,662.9 61.9,656.8 115.4,656.8 120.7,651.6 125.7,656.6 170.2,656.6
    		170.2,679.1 237.9,679.1 243.7,673.3 248.6,678.1 261.6,678.1 266.5,673.2 272.2,678.8 313.9,678.8 313.9,663.9 319.2,658.7
    		313.7,653.2 318.5,648.3 312.7,642.5 318.5,636.6 313.4,631.5 313.4,598.3 318.4,593.3 313.5,588.4 318.8,583 311.9,576.2
    		311.9,562.3 331.2,562.3 335.7,557.8 340.7,562.8 342.9,562.8 347.1,558.6 351.5,563 355.4,563 359.8,558.7 365.6,564.4
    		365.6,557.6 404.3,557.6 409.5,552.3 414,556.8 416.4,556.8 420.1,553.1 426.1,559 433,552.1 439.7,558.8 452.2,558.8 458.5,552.4
    		463.9,557.8 466.7,557.8 470.9,553.6 477.2,559.9 495.3,559.9 495.3,548.1 500.3,543.1 495.5,538.3 495.5,533.1 525.9,533.1
    		529.9,529.1 535.4,534.5 549.9,534.5 554.2,530.2 559.3,535.3 585,535.3 590.5,529.8 595.9,535.2 602.7,535.2 602.7,529.1
    		607.3,524.5 601.2,518.3 601.2,508 607.6,501.5 602.4,496.2 602.4,458.4 638.7,458.4 638.7,453.8 644.2,448.3 639.3,443.3
    		650.9,443.3 650.9,433.1 656.5,427.5 651.8,422.7 651.8,421.5 663.1,421.5 663.1,411.6 669.7,411.6 669.7,379.1 682.2,379.1
    		686.5,374.8 691.3,379.7 703.4,379.7 703.4,366.7 707.7,362.4 703.2,357.9 703.2,342.9 800,342.9 	"></polyline>
                                    <polyline id="Q34" class="st3" points="30,682.9 110.4,682.9 110.4,667.3 115.9,667.3 120.8,662.4 127.2,668.9 158.9,668.9
    		158.9,689.6 237.4,689.6 242.9,684.1 249.2,690.3 261.4,690.3 266.5,685.2 272.4,691 408.9,691 408.9,700.9 428.2,700.9
    		433.5,695.7 439.3,701.5 452.6,701.5 458.8,695.3 464.6,701.1 469.9,701.1 469.9,694.3 506.6,694.3 506.6,689.6 512.1,684
    		506.3,678.2 506.3,667.3 511.6,662 507.2,657.6 512.3,652.5 506.7,646.8 506.7,589.1 512.5,583.3 506.2,577 506.2,575.8
    		513.2,575.8 519.1,569.8 524.4,575.1 526.8,575.1 530.1,571.8 533.8,575.6 536.8,575.6 536.8,578 549.7,578 549.7,576.2
    		554.8,571.1 559.7,576 561.7,576 566.4,571.2 572.3,577.1 584.9,577.1 591.4,570.7 596.4,575.7 601.5,570.6 609,578.1 612.3,578.1
    		612.3,550.7 617.3,545.7 612,540.4 612,530.5 617.5,525 611.9,519.4 611.9,507.7 617.9,501.7 613,496.8 613,476.6 644.4,476.6
    		649.4,471.6 654.6,476.8 668.8,476.8 672.7,472.8 676.9,477 697.7,477 697.7,472.3 702.2,467.8 697.2,462.8 697.2,433.8
    		703.2,427.9 698,422.6 698,415 703.5,409.4 698,404 698,382.9 800,382.9 	"></polyline>
                                    <polyline id="Q35" class="st3" points="30,702.9 98.7,702.9 98.7,711.1 201.2,711.1 207.4,704.9 213.2,710.8 224.2,710.8
    		230.9,704 236.8,710 239.2,710 243.7,705.4 250,711.7 260.7,711.7 266.1,706.2 271.4,711.5 273.7,711.5 273.7,713.1 380.9,713.1
    		386.2,707.8 392.5,714.1 398.3,714.1 398.3,716.1 401.9,719.7 398.5,723.1 398.5,736.1 477.6,736.1 483.6,730.1 489.6,736.1
    		489.6,726.9 495,721.5 501.4,727.9 516.7,727.9 516.7,711.8 521.7,706.8 515.9,701 515.9,689.9 521.8,684 517,679.1 517,674.1
    		525.6,674.1 525.6,667.3 530.5,662.4 525.8,657.7 525.8,652.6 549.7,652.6 554.2,648.2 558.9,652.9 562.2,652.9 566.8,648.3
    		571.5,653 571.5,648.2 573.4,648.2 578.4,643.2 573.2,638 573.2,635.6 576.5,632.3 571.5,627.3 571.5,621.1 578.4,621.1
    		578.4,588.4 585.9,588.4 591,583.3 594.7,587.1 597.7,587.1 601.5,583.3 605.7,587.6 607.5,589.3 622.7,589.3 622.7,551.3
    		628.2,545.8 622.7,540.3 622.7,529.8 627.9,524.5 622.3,519 622.3,508.1 628.4,502 622.7,496.4 622.7,491.8 645.4,491.8
    		649.3,487.8 653,491.5 669.1,491.5 672.8,487.8 677.1,492.1 678.7,493.7 686.1,493.7 686.1,481.6 690.2,477.5 685.7,473
    		690.8,467.8 685.4,462.4 685.4,442.9 693.6,442.9 697.3,439.2 701,442.8 800,442.8 	"></polyline>
                                    <path id="Q36" class="st3" d="M30,722.9h56.9v68.3h49.5v-68.7h48.5v55h70v43.5h59v-15.5l5-5l-5.8-5.8v-17.3h53.8l5.4-5.4
    		l5.8,5.8l1.3,1.3h36.8l4.9-4.9l6.4,6.4h39.1l5-5l6.1,6.1h37.3l4-4l5.5,5.5h7.7v-6.8l4.6-4.6l-5.3-5.3v-5h47.6v-5.5l6-6l-6.2-6.2
    		v-11.3l4.2-4.2l-4.7-4.7l6-6l-5-5l5.6-5.6l-5.9-5.9l4.6-4.6l-5.1-5.1l4.7-4.7c0,0-5.3-4.6-5.3-5.3s0-12.4,0-12.4h25.1l4.5-4.5
    		l-5.5-5.5v-5.2h23.7v-5.8l5.2-5.2l-5-5l5.9-5.9l-5.7-5.7v-4.7h23.4v-21.8l5.3-5.3l-5.3-5.3v-6.2l3.9-3.9l-4.5-4.5v-17.4h14.1v-10.3
    		h5.3l4.7-4.7l4.3,4.3h3.3v-10.6h11.3v-13.4l5.7-7.5l6.7,7.4H800"></path>
                                    <polyline id="Q37" class="st3" points="30,742.9 74.6,742.9 74.6,729.4 80.7,723.3 73.9,716.4 73.9,708.3 79.7,702.5
    		73.8,696.7 73.8,689.7 116.9,689.7 121.2,685.4 127.2,691.3 146.9,691.3 146.9,693.6 152.4,699.1 146.7,704.8 153.1,711.3
    		147.4,716.9 153.1,722.6 147.7,727.9 147.7,732.8 178.2,732.8 184.7,726.3 190.7,732.3 238.6,732.3 243.4,727.5 248.7,732.9
    		337.2,732.9 337.2,727.6 342.9,721.9 338.6,717.6 343,713.2 337.8,708 344.5,701.4 339.6,696.5 344.8,691.4 339.1,685.7
    		339.1,680.9 373.6,680.9 373.6,675.9 378.9,670.5 373,664.5 373,655.3 378.9,649.3 371.6,641.9 371.6,638.3 390.9,638.3
    		396.6,632.6 402.1,638.1 404.9,638.1 409.7,633.3 414.2,637.9 416.9,637.9 420.1,634.7 425,639.5 432.9,639.5 432.9,622.9
    		438,617.8 432.8,612.6 432.8,607.3 452.6,607.3 458.6,601.2 463.3,605.9 465.9,605.9 470.2,601.6 477,608.5 487.9,608.5
    		487.9,617.6 490.2,617.6 494.7,613.1 500.9,619.3 506.5,613.7 512,619.2 517.7,613.4 525.2,620.9 530.9,620.9 530.9,614.6
    		537.1,608.4 532.6,603.9 538,598.5 531.5,592.1 531.5,587.3 550.6,587.3 555.8,582 560.3,586.5 561.4,586.5 566.2,581.8
    		570.6,586.2 572.1,587.7 572.1,604.6 573.8,604.6 578.4,600 583.1,604.7 585.3,604.7 591.2,598.8 597.1,604.7 601.4,604.7
    		601.4,610.7 644.4,610.7 649.5,605.6 654.9,611.1 666.9,611.1 666.9,598.8 672.8,592.9 678.3,598.4 685.9,598.4 685.9,589.8
    		690.3,585.4 684.7,579.8 684.7,568.8 689.3,564.2 684.7,559.6 684.7,546.2 691.8,546.2 697.1,540.9 702.4,546.2 718.3,546.2
    		718.3,542.9 800,542.9 	"></polyline>
                                    <polyline id="Q38" class="st3" points="30,762.9 80.4,762.9 86.9,756.1 93.4,762.6 123.4,762.6 123.4,776.3 130.9,776.3
    		136.5,770.7 142.8,777 159.9,777 159.9,754.5 177.4,754.5 184.1,747.8 190.6,754.3 295.9,754.3 302,748.2 310.1,756.3 337.6,756.3
    		337.6,773.6 341.9,777.9 337.2,782.6 337.2,795.8 342.8,801.3 337.7,806.4 337.7,812.4 421.4,812.4 421.4,825.1 532.2,825.1
    		532.2,819.6 536.5,815.2 530.8,809.5 530.8,804.3 554.9,804.3 554.9,798.3 559.4,793.8 554.3,788.7 554.3,773.1 566.9,773.1
    		566.9,766.8 571.8,761.9 566.1,756.2 572,750.3 566.7,745 566.7,734.1 572,728.8 566.2,723 571.8,717.4 567.1,712.7 572.2,707.5
    		566.4,701.8 566.4,696.1 595.7,696.1 595.7,691.1 600.1,686.7 594.6,681.2 594.6,675.9 619.9,675.9 625.8,670 631.7,675.9
    		638.2,675.9 638.2,654.8 643.7,654.8 649.8,648.7 655.7,654.6 661.7,654.6 661.7,648.7 667.6,642.8 661.1,636.4 661.1,622.8
    		668.9,622.8 673,618.7 677.7,623.3 679.7,623.3 679.7,602.8 692.4,602.8 697.7,597.6 704.2,603 800,603 	"></polyline>
                                    <polyline id="Q39" class="st3" points="30,782.9 74.9,782.9 74.9,799.3 124.9,799.3 124.9,821.1 172.4,821.1 172.4,798.1
    		231.7,798.1 231.7,782.9 237.4,777.3 230.9,770.8 230.9,765.6 297.7,765.6 302.4,760.9 308.7,767.3 315.1,767.3 315.1,761.9
    		320.8,756.2 315.7,751.1 315.7,746.1 367.4,746.1 372.1,741.4 377.9,747.3 445.7,747.3 445.7,752.9 452.2,759.5 446.7,765.1
    		446.7,776.1 451.7,781.2 446.1,786.8 446.1,797.1 451.2,802.1 445.6,807.8 445.6,813.8 471.2,813.8 471.2,819.1 477.3,825.2
    		472.3,830.2 472.3,835.1 508.4,835.1 508.4,829.8 561.9,829.8 566.7,825.1 571.9,830.3 589.9,830.3 589.9,826.1 619.9,826.1
    		619.9,821.1 625.3,815.7 619.9,810.3 619.9,778.1 624.8,773.1 619,767.3 619,756.6 624.9,750.6 620.2,745.8 620.2,734.3
    		625.1,729.4 620.3,724.6 620.3,719.3 631.7,719.3 637.7,713.3 643.5,719.2 649.5,713.3 655.9,719.6 667.9,719.6 673.1,714.5
    		678.8,720.2 678.8,714.3 686.4,714.3 686.4,705.3 691.7,700 685.6,693.9 685.6,682.8 691.7,682.8 697.7,676.8 703.8,682.9
    		800,682.9 	"></polyline>
                                    <polyline id="Q40" class="st3" points="30,802.9 62.9,802.9 62.9,807.1 119.4,807.1 124.9,801.6 130,806.7 167.2,806.7
    		172.5,801.4 177.3,806.2 208.2,806.2 208.2,831.1 245.2,831.1 245.2,788.6 250.4,788.6 255.3,783.7 260.7,789.1 296.4,789.1
    		302.1,783.4 307.5,788.8 308.9,788.8 313.3,784.4 318.9,790.1 325.4,790.1 325.4,794.6 332.2,801.3 326.2,807.3 326.2,833.3
    		398.7,833.3 398.7,817.1 403.5,812.2 398.4,807.1 404.5,801 399.6,796.1 404.6,791 399.3,785.7 405.2,779.8 398.5,773 398.5,751.9
    		403,747.4 398.2,742.5 398.2,740.8 463.1,740.8 463.1,755.5 483.7,755.5 489.6,759.1 483.7,764.9 489.5,770.7 483.9,776.3
    		489.5,781.9 483.1,788.3 483.1,814.8 508.4,814.8 508.4,798.4 514.2,798.4 519.2,793.5 524.4,798.8 542.1,798.8 548,804.6
    		543,809.5 549.2,815.7 544.1,820.8 561.1,820.8 566.5,815.3 561,809.8 561,803.1 566.4,798.9 572.2,804.7 577.4,799.4 582.9,804.9
    		596.7,804.9 601.3,800.3 606.4,805.4 608.4,805.4 608.4,778.1 613,773.5 607.7,768.2 607.7,757.8 614.2,751.2 608.2,745.3
    		608.2,734.4 613.3,729.3 608.2,724.3 608.2,714.1 614.2,714.1 620.7,707.6 614.1,701 614.1,692.9 620.7,692.9 626.1,687.5
    		631.3,692.7 643.7,692.7 650.3,686.1 643.7,679.5 643.7,670.8 668.1,670.8 673.3,665.6 679.3,671.5 691.2,671.5 691.2,662.9
    		697.7,656.3 704.4,662.9 800,662.9 	"></polyline>
                                </g>
                           </svg>